<svg xmlns="http://www.w3.org/2000/svg" width="77.356" height="77.622" viewBox="0 0 77.356 77.622">
  <g id="_5_cookie_consent_banner_design" data-name="5 cookie consent banner design" transform="translate(-3395.539 -2153.215)">
    <g id="Group_3372" data-name="Group 3372" transform="translate(3395.539 2153.215)">
      <path id="Path_9706" data-name="Path 9706" d="M301.86,1103.13h56.613a2.859,2.859,0,0,0,2.859-2.859v-56.614a2.859,2.859,0,0,0-2.859-2.859H301.86a2.859,2.859,0,0,0-2.859,2.859v56.614a2.846,2.846,0,0,0,2.859,2.859Z" transform="translate(-299.001 -1025.508)" fill="blue" opacity="0.03"/>
      <path id="Path_9802" data-name="Path 9802" d="M210.727,979.052h26a2.121,2.121,0,0,0,2.127-2.128v-26a2.121,2.121,0,0,0-2.127-2.127h-26a2.121,2.121,0,0,0-2.127,2.127v26a2.121,2.121,0,0,0,2.127,2.128Z" transform="translate(-161.495 -948.801)" fill="blue" opacity="0.03"/>
    </g>
    <g id="Group_3365" data-name="Group 3365" transform="translate(3405.499 2185.158)">
      <g id="Group_3363" data-name="Group 3363" transform="translate(9.197 14.4)">
        <g id="banner" transform="translate(0)">
          <path id="Path_12357" data-name="Path 12357" d="M46.1,0H1.59A1.591,1.591,0,0,0,0,1.589V20.665a1.591,1.591,0,0,0,1.59,1.589H46.1a1.592,1.592,0,0,0,1.589-1.589V1.589A1.592,1.592,0,0,0,46.1,0ZM1.59,20.665V1.589H46.1V20.665Zm0,0"/>
          <path id="Path_12358" data-name="Path 12358" d="M38.668,77.034a.8.8,0,0,0-1.124,0l-3.179,3.182a.8.8,0,0,0,0,1.124l3.179,3.179a.795.795,0,1,0,1.124-1.124l-2.617-2.62,2.617-2.617A.8.8,0,0,0,38.668,77.034Zm0,0" transform="translate(-30.953 -69.647)"/>
          <path id="Path_12359" data-name="Path 12359" d="M427.931,77.125a.795.795,0,0,0-1.124,1.124l2.617,2.617-2.618,2.617a.795.795,0,1,0,1.124,1.124l3.18-3.18a.8.8,0,0,0,0-1.124Zm0,0" transform="translate(-386.834 -69.738)"/>
          <path id="Path_12361" data-name="Path 12361" d="M301.26,42.668H290.928a.795.795,0,1,0,0,1.589H301.26a.795.795,0,1,0,0-1.589Zm0,0" transform="translate(-263.109 -38.694)"/>
          <path id="Path_12362" data-name="Path 12362" d="M299.671,76.8h-8.743a.795.795,0,1,0,0,1.589h8.743a.795.795,0,1,0,0-1.589Zm0,0" transform="translate(-263.109 -69.647)"/>
          <path id="Path_12363" data-name="Path 12363" d="M297.287,110.934h-6.358a.795.795,0,1,0,0,1.589h6.358a.795.795,0,1,0,0-1.589Zm0,0" transform="translate(-263.11 -100.601)"/>
          <path id="Path_12364" data-name="Path 12364" d="M294.9,145.066h-3.973a.795.795,0,1,0,0,1.589H294.9a.795.795,0,0,0,0-1.589Zm0,0" transform="translate(-263.109 -131.555)"/>
          <path id="Path_12365" data-name="Path 12365" d="M292.517,179.2h-1.589a.795.795,0,1,0,0,1.589h1.589a.795.795,0,1,0,0-1.589Zm0,0" transform="translate(-263.109 -162.508)"/>
          <path id="Path_12371" data-name="Path 12371" d="M54.734,262.033a6.033,6.033,0,1,0-6.033,6.033A6.033,6.033,0,0,0,54.734,262.033Zm-10.342,0a4.309,4.309,0,1,1,4.309,4.309,4.309,4.309,0,0,1-4.309-4.309Zm0,0" transform="translate(-31.203 -250.931)"/>
        </g>
      </g>
      <path id="Subtraction_3" data-name="Subtraction 3" d="M45.508,45.508H3.793A3.8,3.8,0,0,1,0,41.716V3.793A3.8,3.8,0,0,1,3.793,0H45.508a3.8,3.8,0,0,1,3.8,3.793v7.179h-1.9V3.793a1.9,1.9,0,0,0-1.9-1.9H3.793a1.9,1.9,0,0,0-1.9,1.9V41.714a1.9,1.9,0,0,0,1.9,1.9H45.508a1.9,1.9,0,0,0,1.9-1.9V40.98h1.9v.734A3.8,3.8,0,0,1,45.508,45.508Z"/>
      <g id="Group_3364" data-name="Group 3364" transform="translate(4.114 3.834)">
        <path id="Path_12373" data-name="Path 12373" d="M312.5,187.75h1.9v1.9h-1.9Zm0,0" transform="translate(-305.881 -187.75)"/>
        <path id="Path_12374" data-name="Path 12374" d="M312.5,187.75h1.9v1.9h-1.9Zm0,0" transform="translate(-309.31 -187.75)"/>
        <path id="Path_12375" data-name="Path 12375" d="M312.5,187.75h1.9v1.9h-1.9Zm0,0" transform="translate(-312.5 -187.75)"/>
      </g>
    </g>
  </g>
</svg>
