<svg xmlns="http://www.w3.org/2000/svg" width="75.465" height="80.497" viewBox="0 0 75.465 80.497">
  <g id="Choose_your_Covid-19" data-name="Choose your Covid-19" transform="translate(-2.001)">
    <path id="Path_12757" data-name="Path 12757" d="M71.341,0H18.516A2.518,2.518,0,0,0,16,2.516V20.124h2.516V2.516H28.578V7.547H22.289A1.258,1.258,0,0,0,21.031,8.8v11.32h2.516V10.062h5.031v2.516a2.518,2.518,0,0,0,2.516,2.516H58.764a2.518,2.518,0,0,0,2.516-2.516V10.062H66.31V40.248h2.516V8.8a1.258,1.258,0,0,0-1.258-1.258H61.279V2.516H71.341V77.981H18.516V70.435H16v8.8A1.258,1.258,0,0,0,17.258,80.5H71.341a2.518,2.518,0,0,0,2.516-2.516V2.516A2.518,2.518,0,0,0,71.341,0ZM58.764,12.578H31.093V2.516H58.764Z" transform="translate(3.608)" fill="#292929"/>
    <path id="Path_12758" data-name="Path 12758" d="M67.795,34H65.279V51.609H52.7a1.258,1.258,0,0,0-1.258,1.258v11.32H22.516V61.671H20v3.773A1.258,1.258,0,0,0,21.258,66.7H52.7a1.306,1.306,0,0,0,.172-.011l.038-.006.02,0,.024-.005a.249.249,0,0,0,.033-.008l.01,0c.034-.009.068-.018.1-.029h0a1.05,1.05,0,0,0,.1-.04h0a1.073,1.073,0,0,0,.1-.05h0c.015-.009.031-.018.047-.028l.019-.013.03-.02.015-.011.031-.023.029-.023.018-.014.045-.039L67.384,53.795c.021-.019.042-.039.06-.059l.016-.018c.016-.018.033-.036.048-.055l.009-.01c.018-.021.034-.044.049-.065.005-.006.009-.013.014-.02s.024-.036.035-.055a.126.126,0,0,0,.01-.018.776.776,0,0,0,.038-.072c0-.006.006-.014.01-.02l.026-.059c0-.008.006-.014.009-.021.01-.025.019-.052.028-.078l0-.011c.008-.024.014-.048.02-.072a.1.1,0,0,1,.005-.019,1.25,1.25,0,0,0,.026-.167c0-.006,0-.014,0-.02l0-.07V34ZM53.959,54.124h9.324l-6.108,5.553L53.959,62.6Z" transform="translate(4.639 8.764)" fill="#292929"/>
    <path id="Path_12759" data-name="Path 12759" d="M30,5h2.516V7.516H30Z" transform="translate(7.217 1.289)" fill="#292929"/>
    <path id="Path_12760" data-name="Path 12760" d="M46,5h2.516V7.516H46Z" transform="translate(11.341 1.289)" fill="#292929"/>
    <path id="Path_12761" data-name="Path 12761" d="M57.186,16H28.258A1.258,1.258,0,0,0,27,17.258v5.031h2.516V18.516H55.928V36.124H37.062V38.64H57.186a1.258,1.258,0,0,0,1.258-1.258V17.258A1.258,1.258,0,0,0,57.186,16Z" transform="translate(6.444 4.124)" fill="#292929"/>
    <path id="Path_12762" data-name="Path 12762" d="M34,38H47.835v2.516H34Z" transform="translate(8.248 9.795)" fill="#292929"/>
    <path id="Path_12763" data-name="Path 12763" d="M47,38h7.547v2.516H47Z" transform="translate(11.599 9.795)" fill="#292929"/>
    <path id="Path_12764" data-name="Path 12764" d="M31,44H44.835v2.516H31Z" transform="translate(7.475 11.341)" fill="#292929"/>
    <path id="Path_12765" data-name="Path 12765" d="M44,44H55.32v2.516H44Z" transform="translate(10.826 11.341)" fill="#292929"/>
    <path id="Path_12766" data-name="Path 12766" d="M26,50H47.382v2.516H26Z" transform="translate(6.186 12.888)" fill="#292929"/>
    <path id="Path_12767" data-name="Path 12767" d="M34,5H46.578V7.516H34Z" transform="translate(8.248 1.289)" fill="#292929"/>
    <path id="Path_12768" data-name="Path 12768" d="M22.124,63.279a1.251,1.251,0,0,0,.755-.252l5.55-4.163a31.333,31.333,0,0,0,12.1-19.69l1.7-9.636a1.257,1.257,0,0,0-.646-1.328L22.716,18.148a1.256,1.256,0,0,0-1.184,0L2.666,28.21a1.258,1.258,0,0,0-.646,1.328l1.687,9.568A31.355,31.355,0,0,0,15.65,58.682l5.714,4.342a1.256,1.256,0,0,0,.76.255ZM6.183,38.669,4.655,30l17.469-9.317L39.593,30l-1.542,8.736A28.828,28.828,0,0,1,26.92,56.852l-4.791,3.593-4.958-3.767A28.847,28.847,0,0,1,6.183,38.669Z" transform="translate(0 4.64)" fill="#292929"/>
    <g id="virus" transform="translate(10.098 28.15)">
      <path id="Path_13131" data-name="Path 13131" d="M46.614,14.578a2.283,2.283,0,0,0-.805-1.592A2.087,2.087,0,0,0,44.25,12.5a2.234,2.234,0,0,0-1.783,1.307l-.7.062-.691-.194a.174.174,0,0,1-.116-.114,6.485,6.485,0,0,0-.853-1.678l.245-.657.772-.835a1.569,1.569,0,0,0,1.14-.546,1.6,1.6,0,0,0-.05-2.13,1.568,1.568,0,0,0-1.16-.491,1.584,1.584,0,0,0-1.57,1.651l-.772.835-.647.3a6.488,6.488,0,0,0-3.181-.885l-.423-.674-.149-.741a2.011,2.011,0,0,0,.713-1.984,2.218,2.218,0,0,0-3.976-.695,1.98,1.98,0,0,0-.293,1.52,2.092,2.092,0,0,0,1.351,1.521l.165.819-.131.8A6.493,6.493,0,0,0,30.5,10.744l-.485-.086-.548-.413a1.584,1.584,0,1,0-1.256,1.85l.459.346.206.421a.069.069,0,0,1,0,.059,6.439,6.439,0,0,0-.592,2.709c0,.175.007.352.021.528a.073.073,0,0,1-.029.066l-.775.552-.885.278a2.074,2.074,0,0,0-1.923-.329l-.039.014-.011,0a.351.351,0,1,0,.238.66L24.9,17.4l.016-.006a1.375,1.375,0,0,1,1.381.31.35.35,0,0,0,.347.08l1.123-.353a.351.351,0,0,0,.1-.049l.82-.585A.778.778,0,0,0,29,16.1c-.013-.157-.019-.315-.019-.471a5.742,5.742,0,0,1,.528-2.416.767.767,0,0,0-.008-.66l-.243-.5a.35.35,0,0,0-.1-.126l-.66-.5a.35.35,0,0,0-.318-.054.885.885,0,0,1-.8-.135.883.883,0,0,1-.137-1.281.892.892,0,0,1,1.16-.158.881.881,0,0,1,.389.661.35.35,0,0,0,.138.251l.731.551a.35.35,0,0,0,.15.065l.736.131a.35.35,0,0,0,.3-.088,5.8,5.8,0,0,1,1.743-1.117.35.35,0,0,0,.212-.267l.173-1.051a.351.351,0,0,0,0-.126l-.218-1.085a.35.35,0,0,0-.256-.27,1.412,1.412,0,0,1-1.056-1.055,1.284,1.284,0,0,1,.192-.986,1.518,1.518,0,0,1,2.707.453,1.329,1.329,0,0,1-.606,1.393.351.351,0,0,0-.153.364l.206,1.024a.351.351,0,0,0,.047.117l.506.808a.529.529,0,0,0,.451.249h0a5.785,5.785,0,0,1,2.99.832.529.529,0,0,0,.5.028l.793-.368a.351.351,0,0,0,.11-.08l.925-1a.35.35,0,0,0,.089-.292A.883.883,0,0,1,41.706,8.2a.888.888,0,0,1,.028,1.186.877.877,0,0,1-.735.3.35.35,0,0,0-.284.112l-.925,1a.35.35,0,0,0-.071.116l-.3.809a.528.528,0,0,0,.069.5,5.789,5.789,0,0,1,.808,1.564.874.874,0,0,0,.591.566l.753.211a.351.351,0,0,0,.125.012l.977-.086a.351.351,0,0,0,.3-.234A1.545,1.545,0,0,1,44.32,13.2a1.392,1.392,0,0,1,1.039.324,1.587,1.587,0,0,1,.556,1.109,1.708,1.708,0,0,1-.153.85.351.351,0,0,0,.636.3,2.413,2.413,0,0,0,.216-1.2Z" transform="translate(-23.276 0)"/>
      <path id="Path_13132" data-name="Path 13132" d="M21.574,245.833a1.415,1.415,0,0,1-1.747-.792.35.35,0,0,0-.348-.2l-.918.081a.351.351,0,0,0-.121.033l-.693.334a.874.874,0,0,0-.484.669,5.763,5.763,0,0,1-.329,1.272.871.871,0,0,0,.051.74l.247.441a.35.35,0,0,0,.111.12l.687.461a.351.351,0,0,0,.321.036.885.885,0,0,1,.808.091.883.883,0,0,1,.208,1.272.892.892,0,0,1-1.149.222.881.881,0,0,1-.425-.638.35.35,0,0,0-.152-.242l-.76-.51a.35.35,0,0,0-.153-.057l-.479-.058a.9.9,0,0,0-.732.245,5.836,5.836,0,0,1-1.279.924.9.9,0,0,0-.47.735l-.061.97a.35.35,0,0,0,.01.108l.3,1.194a.35.35,0,0,0,.245.252,1.186,1.186,0,0,1,.829.85,1.182,1.182,0,0,1-.891,1.443,1.182,1.182,0,0,1-1.083-2,.351.351,0,0,0,.094-.336l-.3-1.2a.35.35,0,0,0-.042-.1l-.467-.751a1.031,1.031,0,0,0-.885-.486h0a5.822,5.822,0,0,1-1.128-.11,1.029,1.029,0,0,0-.953.3l-.617.651a.352.352,0,0,0-.061.089l-.691,1.433a.351.351,0,0,0,0,.307.883.883,0,0,1-1.227,1.159.893.893,0,0,1-.383-1.1.876.876,0,0,1,.619-.527.351.351,0,0,0,.236-.189l.7-1.442a.35.35,0,0,0,.031-.1l.136-.968a.869.869,0,0,0-.31-.793,5.833,5.833,0,0,1-1.318-1.511.87.87,0,0,0-.732-.414l-.967-.009a.347.347,0,0,0-.109.016l-1.058.333a.351.351,0,0,0-.243.3,1.375,1.375,0,0,1-2.673.275,1.356,1.356,0,0,1,.009-.869.351.351,0,1,0-.663-.228A2.052,2.052,0,0,0,.1,248.863a2.085,2.085,0,0,0,1.978,1.43,2.057,2.057,0,0,0,.618-.1,2.079,2.079,0,0,0,1.4-1.518l.8-.252.911.009a.164.164,0,0,1,.139.077A6.533,6.533,0,0,0,7.423,250.2a.164.164,0,0,1,.057.151l-.129.914-.6,1.253A1.584,1.584,0,0,0,6.5,255.4a1.571,1.571,0,0,0,1.254.132A1.59,1.59,0,0,0,8.7,254.7a1.573,1.573,0,0,0,.064-1.223l.6-1.241.579-.611a.332.332,0,0,1,.308-.1,6.539,6.539,0,0,0,1.268.124h0a.333.333,0,0,1,.286.155l.438.7.243.966a1.875,1.875,0,0,0-.331,1.778,1.9,1.9,0,0,0,1.8,1.3,1.842,1.842,0,0,0,.4-.044,1.883,1.883,0,0,0,1.418-2.3,1.889,1.889,0,0,0-1.121-1.286l-.241-.957.057-.915a.2.2,0,0,1,.1-.16A6.539,6.539,0,0,0,16,249.859a.2.2,0,0,1,.164-.056l.4.048.57.382a1.584,1.584,0,1,0,1.152-1.917L17.8,248l-.206-.368a.172.172,0,0,1-.009-.146,6.465,6.465,0,0,0,.369-1.427.174.174,0,0,1,.095-.134l.635-.306.623-.055a2.109,2.109,0,0,0,2.483.94.351.351,0,0,0-.219-.666Z" transform="translate(0 -229.52)"/>
      <path id="Path_13133" data-name="Path 13133" d="M147.466,146.607a4.91,4.91,0,1,0,1.5.628.351.351,0,1,0-.375.592,4.19,4.19,0,1,1-1.281-.538.351.351,0,0,0,.16-.683Z" transform="translate(-134.825 -135.755)"/>
      <path id="Path_13134" data-name="Path 13134" d="M48.743,14.458a1.649,1.649,0,1,0-1.649-1.649A1.65,1.65,0,0,0,48.743,14.458Zm0-2.6a.947.947,0,1,1-.947.947A.949.949,0,0,1,48.743,11.862Z" transform="translate(-44.897 -6.763)"/>
      <path id="Path_13135" data-name="Path 13135" d="M50.138,386.653a1.208,1.208,0,1,0,1.208,1.208A1.209,1.209,0,0,0,50.138,386.653Zm0,1.715a.507.507,0,1,1,.507-.507A.507.507,0,0,1,50.138,388.368Z" transform="translate(-46.647 -364.705)"/>
      <path id="Path_13136" data-name="Path 13136" d="M378.658,408.111a1.613,1.613,0,1,0,1.613,1.613A1.615,1.615,0,0,0,378.658,408.111Zm0,2.526a.912.912,0,1,1,.912-.912A.913.913,0,0,1,378.658,410.637Z" transform="translate(-359.426 -385.16)"/>
      <path id="Path_13137" data-name="Path 13137" d="M186.881,193.44a1.528,1.528,0,1,0-1.528,1.528A1.53,1.53,0,0,0,186.881,193.44Zm-1.528.827a.827.827,0,1,1,.827-.827A.828.828,0,0,1,185.353,194.267Z" transform="translate(-175.237 -179.066)"/>
      <path id="Path_13138" data-name="Path 13138" d="M213.242,280.5a1.152,1.152,0,1,0-1.152-1.152A1.153,1.153,0,0,0,213.242,280.5Zm0-1.6a.451.451,0,1,1-.451.451A.451.451,0,0,1,213.242,278.894Z" transform="translate(-202.181 -261.315)"/>
      <path id="Path_13139" data-name="Path 13139" d="M268.673,230.62A1.023,1.023,0,1,0,269.7,229.6,1.025,1.025,0,0,0,268.673,230.62Zm1.023-.322a.322.322,0,1,1-.322.322A.323.323,0,0,1,269.7,230.3Z" transform="translate(-256.12 -214.99)"/>
    </g>
  </g>
</svg>
