<svg xmlns="http://www.w3.org/2000/svg" width="77.356" height="77.622" viewBox="0 0 77.356 77.622">
  <g id="cookie_consent_for_branding" data-name="cookie consent for branding" transform="translate(-3662.336 -2153.215)">
    <g id="Group_3373" data-name="Group 3373" transform="translate(3662.336 2153.215)">
      <path id="Path_9706" data-name="Path 9706" d="M301.86,1103.13h56.613a2.859,2.859,0,0,0,2.859-2.859v-56.614a2.859,2.859,0,0,0-2.859-2.859H301.86a2.859,2.859,0,0,0-2.859,2.859v56.614a2.846,2.846,0,0,0,2.859,2.859Z" transform="translate(-299.001 -1025.508)" fill="blue" opacity="0.03"/>
      <path id="Path_9802" data-name="Path 9802" d="M210.727,979.052h26a2.121,2.121,0,0,0,2.127-2.128v-26a2.121,2.121,0,0,0-2.127-2.127h-26a2.121,2.121,0,0,0-2.127,2.127v26a2.121,2.121,0,0,0,2.127,2.128Z" transform="translate(-161.495 -948.801)" fill="blue" opacity="0.03"/>
    </g>
    <g id="Group_3368" data-name="Group 3368" transform="translate(3675.142 2183.454)">
      <g id="Group_3366" data-name="Group 3366" transform="translate(7.115 9.558)">
        <path id="Path_12378" data-name="Path 12378" d="M64,392h3.13v1.565H64Z" transform="translate(-64 -366.957)"/>
        <path id="Path_12379" data-name="Path 12379" d="M112,392h2.348v1.565H112Z" transform="translate(-107.304 -366.957)"/>
        <path id="Path_12380" data-name="Path 12380" d="M64,432h5.478v1.565H64Z" transform="translate(-64 -403.044)"/>
        <path id="Path_12381" data-name="Path 12381" d="M136,432h7.826v1.565H136Z" transform="translate(-128.956 -403.044)"/>
        <path id="Path_12382" data-name="Path 12382" d="M416,392h3.13v1.565H416Z" transform="translate(-381.565 -366.957)"/>
        <path id="Path_12383" data-name="Path 12383" d="M376,392h2.348v1.565H376Z" transform="translate(-345.478 -366.957)"/>
        <path id="Path_12384" data-name="Path 12384" d="M392,432h5.478v1.565H392Z" transform="translate(-359.913 -403.044)"/>
        <path id="Path_12385" data-name="Path 12385" d="M296,432h7.826v1.565H296Z" transform="translate(-273.304 -403.044)"/>
        <path id="Path_12386" data-name="Path 12386" d="M200,344h1.565v1.565H200Z" transform="translate(-186.696 -323.652)"/>
        <path id="Path_12387" data-name="Path 12387" d="M232,344h1.565v1.565H232Z" transform="translate(-215.565 -323.652)"/>
        <path id="Path_12388" data-name="Path 12388" d="M264,344h1.565v1.565H264Z" transform="translate(-244.435 -323.652)"/>
        <path id="Path_12389" data-name="Path 12389" d="M296,344h1.565v1.565H296Z" transform="translate(-273.304 -323.652)"/>
        <path id="Path_12391" data-name="Path 12391" d="M191.652,149.3V140.7a.783.783,0,0,0-.4-.684l-7.043-3.913a.783.783,0,0,0-.76,0l-7.043,3.913a.783.783,0,0,0-.4.684V149.3a.783.783,0,0,0,.349.651l4.7,3.13a.782.782,0,0,0,.434.132h4.7a.783.783,0,0,0,.434-.132l4.7-3.13a.783.783,0,0,0,.349-.651Zm-7.826-11.627,5.432,3.018-5.432,3.018-5.432-3.018Zm2.111,13.974h-4.222l-4.15-2.767v-6.859l5.881,3.267a.783.783,0,0,0,.76,0l5.881-3.267v6.86Z" transform="translate(-165.043 -136)"/>
      </g>
      <g id="Group_3367" data-name="Group 3367" transform="translate(0)">
        <path id="Path_12392" data-name="Path 12392" d="M125,168.533a3.935,3.935,0,0,0,3.934,3.934h43.282a3.935,3.935,0,0,0,3.934-3.934V129.189a3.935,3.935,0,0,0-3.934-3.934H128.934A3.935,3.935,0,0,0,125,129.189Zm1.967-39.344a1.967,1.967,0,0,1,1.967-1.967h43.282a1.967,1.967,0,0,1,1.967,1.967v39.344a1.967,1.967,0,0,1-1.967,1.967H128.934a1.967,1.967,0,0,1-1.967-1.967Zm0,0" transform="translate(-125 -125.255)"/>
        <path id="Path_12393" data-name="Path 12393" d="M187.5,187.75h1.967v1.967H187.5Zm0,0" transform="translate(-183.565 -183.819)"/>
        <path id="Path_12394" data-name="Path 12394" d="M250,187.75h1.967v1.967H250Zm0,0" transform="translate(-242.131 -183.819)"/>
        <path id="Path_12395" data-name="Path 12395" d="M312.5,187.75h1.967v1.967H312.5Zm0,0" transform="translate(-300.696 -183.819)"/>
      </g>
    </g>
  </g>
</svg>
