<svg xmlns="http://www.w3.org/2000/svg" width="77.356" height="77.642" viewBox="0 0 77.356 77.642">
  <g id="cookie_consent_with_multi-lingual" data-name="cookie consent with multi-lingual" transform="translate(-3372.539 -2443.501)">
    <g id="Group_3379" data-name="Group 3379" transform="translate(3372.539 2443.501)">
      <path id="Path_9706" data-name="Path 9706" d="M301.86,1103.13h56.613a2.859,2.859,0,0,0,2.859-2.859v-56.614a2.859,2.859,0,0,0-2.859-2.859H301.86a2.859,2.859,0,0,0-2.859,2.859v56.614a2.846,2.846,0,0,0,2.859,2.859Z" transform="translate(-299.001 -1025.508)" fill="blue" opacity="0.03"/>
      <path id="Path_9802" data-name="Path 9802" d="M210.727,979.052h26a2.121,2.121,0,0,0,2.127-2.128v-26a2.121,2.121,0,0,0-2.127-2.127h-26a2.121,2.121,0,0,0-2.127,2.127v26a2.121,2.121,0,0,0,2.127,2.128Z" transform="translate(-161.495 -948.801)" fill="blue" opacity="0.03"/>
    </g>
    <g id="surface1" transform="translate(3382.499 2468.046)">
      <path id="Path_12343" data-name="Path 12343" d="M3.793,45.762h1.9v-1.9h-1.9a1.9,1.9,0,0,1-1.9-1.9V4.043a1.9,1.9,0,0,1,1.9-1.9H45.512a1.9,1.9,0,0,1,1.9,1.9v1.9h1.9v-1.9A3.793,3.793,0,0,0,45.512.25H3.793A3.793,3.793,0,0,0,0,4.043V41.969A3.793,3.793,0,0,0,3.793,45.762Zm0,0" transform="translate(0 -0.25)"/>
      <path id="Path_12344" data-name="Path 12344" d="M62.5,62.75h1.9v1.9H62.5Zm0,0" transform="translate(-58.707 -58.957)"/>
      <path id="Path_12345" data-name="Path 12345" d="M125,62.75h1.9v1.9H125Zm0,0" transform="translate(-117.414 -58.957)"/>
      <path id="Path_12346" data-name="Path 12346" d="M187.5,62.75h1.9v1.9h-1.9Zm0,0" transform="translate(-176.122 -58.957)"/>
      <path id="Path_12347" data-name="Path 12347" d="M125,166.969a3.793,3.793,0,0,0,3.793,3.793h41.719a3.793,3.793,0,0,0,3.793-3.793V129.043a3.793,3.793,0,0,0-3.793-3.793H128.793A3.793,3.793,0,0,0,125,129.043Zm1.9-37.927a1.9,1.9,0,0,1,1.9-1.9h41.72a1.9,1.9,0,0,1,1.9,1.9v37.927a1.9,1.9,0,0,1-1.9,1.9H128.793a1.9,1.9,0,0,1-1.9-1.9Zm0,0" transform="translate(-117.414 -117.664)"/>
      <path id="Path_12348" data-name="Path 12348" d="M187.5,187.75h1.9v1.9h-1.9Zm0,0" transform="translate(-176.122 -176.372)"/>
      <path id="Path_12349" data-name="Path 12349" d="M250,187.75h1.9v1.9H250Zm0,0" transform="translate(-234.83 -176.372)"/>
      <path id="Path_12350" data-name="Path 12350" d="M312.5,187.75h1.9v1.9h-1.9Zm0,0" transform="translate(-293.537 -176.372)"/>
      <g id="language" transform="translate(17.495 18.169)">
        <g id="Group_3381" data-name="Group 3381" transform="translate(0 0)">
          <g id="Group_3380" data-name="Group 3380">
            <path id="Path_12403" data-name="Path 12403" d="M15.719,38.648h0l-3.364-3.323.04-.04a23.2,23.2,0,0,0,4.913-8.647h3.88V23.982h-9.27V21.333H9.27v2.649H0v2.632H14.792a20.917,20.917,0,0,1-4.2,7.1,20.883,20.883,0,0,1-3.059-4.436H4.886a23.257,23.257,0,0,0,3.946,6.039L2.1,41.971l1.874,1.874,6.622-6.622,4.119,4.119Z" transform="translate(0 -21.333)"/>
            <path id="Path_12404" data-name="Path 12404" d="M243.273,192h-2.649l-5.959,15.891h2.649l1.49-3.973h6.29l1.49,3.973h2.649Zm-3.476,9.27,2.152-5.741,2.152,5.741Z" transform="translate(-220.099 -181.406)"/>
          </g>
        </g>
      </g>
    </g>
  </g>
</svg>
