<svg xmlns="http://www.w3.org/2000/svg" width="77.356" height="77.622" viewBox="0 0 77.356 77.622">
  <g id="cookie_consent_customer_support" data-name="cookie consent customer support" transform="translate(-4428.133 -3342.788)">
    <g id="Group_3422" data-name="Group 3422" transform="translate(4428.133 3342.788)">
      <path id="Path_9706" data-name="Path 9706" d="M301.86,1103.13h56.613a2.859,2.859,0,0,0,2.859-2.859v-56.614a2.859,2.859,0,0,0-2.859-2.859H301.86a2.859,2.859,0,0,0-2.859,2.859v56.614a2.846,2.846,0,0,0,2.859,2.859Z" transform="translate(-299.001 -1025.508)" fill="blue" opacity="0.03"/>
      <path id="Path_9802" data-name="Path 9802" d="M210.727,979.052h26a2.121,2.121,0,0,0,2.127-2.128v-26a2.121,2.121,0,0,0-2.127-2.127h-26a2.121,2.121,0,0,0-2.127,2.127v26a2.121,2.121,0,0,0,2.127,2.128Z" transform="translate(-161.495 -948.801)" fill="blue" opacity="0.03"/>
    </g>
    <g id="Group_3440" data-name="Group 3440" transform="translate(4440.938 3368.755)">
      <g id="Group_3390" data-name="Group 3390">
        <g id="Group_3369" data-name="Group 3369" transform="translate(0 0)">
          <path id="Path_12398" data-name="Path 12398" d="M3.865,46.625H15.046V44.693H3.865A1.932,1.932,0,0,1,1.932,42.76V4.115A1.932,1.932,0,0,1,3.865,2.182h42.51a1.932,1.932,0,0,1,1.933,1.932v9.048H50.24V4.115A3.865,3.865,0,0,0,46.375.25H3.865A3.865,3.865,0,0,0,0,4.115V42.76a3.865,3.865,0,0,0,3.865,3.865Zm0,0" transform="translate(0 -0.25)"/>
          <path id="Path_12399" data-name="Path 12399" d="M62.5,62.75h1.932v1.932H62.5Zm0,0" transform="translate(-58.635 -58.885)"/>
          <path id="Path_12400" data-name="Path 12400" d="M125,62.75h1.932v1.932H125Zm0,0" transform="translate(-117.271 -58.885)"/>
          <path id="Path_12401" data-name="Path 12401" d="M187.5,62.75h1.932v1.932H187.5Zm0,0" transform="translate(-175.906 -58.885)"/>
        </g>
      </g>
      <g id="support" transform="translate(20.564 17.007)">
        <g id="Group_3425" data-name="Group 3425" transform="translate(0 12.899)">
          <g id="Group_3424" data-name="Group 3424" transform="translate(0 0)">
            <path id="Path_12477" data-name="Path 12477" d="M10.557,230.5a.581.581,0,0,0-.128-.021,3.712,3.712,0,0,0,1.028-2.566v-3.059a.587.587,0,0,0-.006-.082c0-.055.006-.111.006-.167v-1.934a.581.581,0,0,0-.581-.581h-3.9A2.979,2.979,0,0,0,4,225.068v2.846a3.712,3.712,0,0,0,1.028,2.566.578.578,0,0,0-.128.021A5.4,5.4,0,0,0,0,235.874v2.482a.581.581,0,0,0,.581.581h14.3a.581.581,0,0,0,.581-.581v-2.482A5.4,5.4,0,0,0,10.557,230.5Zm-5.391-4.7v-.736a1.816,1.816,0,0,1,1.814-1.814h3.315v1.352a1.237,1.237,0,0,1-1.235,1.235H5.165Zm0,1.2H9.06a2.381,2.381,0,0,0,1.235-.344v1.252a2.565,2.565,0,0,1-5.13,0Zm3.829,4.635L7.73,232.905l-1.264-1.264Zm5.3,6.133H1.162v-1.163H3.573a.581.581,0,0,0,0-1.162H1.183a4.24,4.24,0,0,1,3.675-3.774l2.462,2.462a.581.581,0,0,0,.822,0l2.462-2.462a4.237,4.237,0,0,1,3.7,4.2Z" transform="translate(0 -222.092)"/>
          </g>
        </g>
        <g id="Group_3427" data-name="Group 3427" transform="translate(14.285)">
          <g id="Group_3426" data-name="Group 3426" transform="translate(0)">
            <path id="Path_12478" data-name="Path 12478" d="M256.43,8.407a.583.583,0,0,0-.128-.021A3.712,3.712,0,0,0,257.33,5.82V2.76a.587.587,0,0,0-.006-.082c0-.055.006-.111.006-.167V.581A.581.581,0,0,0,256.748,0h-3.9a2.979,2.979,0,0,0-2.975,2.976V5.822A3.712,3.712,0,0,0,250.9,8.388a.582.582,0,0,0-.128.021,5.4,5.4,0,0,0-4.9,5.372v2.482a.581.581,0,0,0,.581.581h4.674a.581.581,0,1,0,0-1.162h-4.093v-1.9a4.237,4.237,0,0,1,3.7-4.2l2.462,2.462a.581.581,0,0,0,.822,0l2.462-2.462a4.237,4.237,0,0,1,3.7,4.2v1.9H255.9a.581.581,0,1,0,0,1.162h4.861a.581.581,0,0,0,.581-.581V13.779a5.4,5.4,0,0,0-4.909-5.372ZM253.6,10.814,252.339,9.55h2.529Zm2.561-4.991a2.565,2.565,0,0,1-5.13,0V4.909h3.895a2.382,2.382,0,0,0,1.235-.344Zm0-3.305a1.236,1.236,0,0,1-1.235,1.235h-3.895V2.976a1.816,1.816,0,0,1,1.814-1.814h3.315Z" transform="translate(-245.873)"/>
          </g>
        </g>
        <g id="Group_3431" data-name="Group 3431">
          <g id="Group_3430" data-name="Group 3430">
            <path id="Path_12480" data-name="Path 12480" d="M15.535,8.129,13.105,5.7V2.9A2.908,2.908,0,0,0,10.2,0H2.9A2.908,2.908,0,0,0,0,2.9V8.017a2.908,2.908,0,0,0,2.9,2.9h7.3a2.889,2.889,0,0,0,2.688-1.8h2.235a.581.581,0,0,0,.411-.992Zm-3.071-.17a.581.581,0,0,0-.569.45,1.733,1.733,0,0,1-1.7,1.352H2.9A1.744,1.744,0,0,1,1.162,8.018V2.9A1.744,1.744,0,0,1,2.9,1.162h7.3A1.744,1.744,0,0,1,11.943,2.9V5.94a.581.581,0,0,0,.17.411l1.608,1.608Z"/>
          </g>
        </g>
        <g id="Group_3433" data-name="Group 3433" transform="translate(14.038 18.822)">
          <g id="Group_3432" data-name="Group 3432" transform="translate(0 0)">
            <path id="Path_12481" data-name="Path 12481" d="M254.466,324h-7.3a2.888,2.888,0,0,0-2.688,1.8h-2.235a.581.581,0,0,0-.41.992l2.43,2.43v2.795a2.908,2.908,0,0,0,2.9,2.9h7.3a2.908,2.908,0,0,0,2.9-2.9V326.9a2.908,2.908,0,0,0-2.9-2.9Zm1.743,8.017a1.744,1.744,0,0,1-1.743,1.743h-7.3a1.744,1.744,0,0,1-1.743-1.743V328.98a.581.581,0,0,0-.17-.411l-1.608-1.608H244.9a.581.581,0,0,0,.569-.45,1.733,1.733,0,0,1,1.7-1.352h7.3a1.744,1.744,0,0,1,1.743,1.743Z" transform="translate(-241.664 -324)"/>
          </g>
        </g>
        <g id="Group_3435" data-name="Group 3435" transform="translate(21.716 22.566)">
          <g id="Group_3434" data-name="Group 3434" transform="translate(0 0)">
            <path id="Path_12482" data-name="Path 12482" d="M378.07,388.631a.581.581,0,0,0-.822,0l-1.545,1.545-.718-.718a.581.581,0,1,0-.822.822l1.129,1.129a.581.581,0,0,0,.822,0l1.955-1.955a.581.581,0,0,0,0-.822Z" transform="translate(-373.983 -388.46)"/>
          </g>
        </g>
        <g id="Group_3437" data-name="Group 3437" transform="translate(5.17 1.977)">
          <g id="Group_3436" data-name="Group 3436" transform="translate(0 0)">
            <path id="Path_12483" data-name="Path 12483" d="M93.017,35.9a2.019,2.019,0,0,0-1.868-1.868,2,2,0,0,0-1.515.536,2.021,2.021,0,0,0-.64,1.473.581.581,0,1,0,1.162,0,.854.854,0,1,1,1.039.832.975.975,0,0,0-.768.956v.31a.581.581,0,0,0,1.162,0v-.169a2,2,0,0,0,1.429-2.07Z" transform="translate(-88.993 -34.031)"/>
          </g>
        </g>
        <g id="Group_3439" data-name="Group 3439" transform="translate(6.604 7.732)">
          <g id="Group_3438" data-name="Group 3438" transform="translate(0 0)">
            <path id="Path_12484" data-name="Path 12484" d="M114.662,133.26a.581.581,0,1,0,.17.411A.581.581,0,0,0,114.662,133.26Z" transform="translate(-113.671 -133.09)"/>
          </g>
        </g>
      </g>
    </g>
  </g>
</svg>
