<svg xmlns="http://www.w3.org/2000/svg" width="77.356" height="77.624" viewBox="0 0 77.356 77.624">
  <g id="cookie_consent_with_prior_consent" data-name="cookie consent with prior consent" transform="translate(-3906.133 -2443.501)">
    <g id="Group_3384" data-name="Group 3384" transform="translate(3906.133 2443.501)">
      <path id="Path_9706" data-name="Path 9706" d="M301.86,1103.13h56.613a2.859,2.859,0,0,0,2.859-2.859v-56.614a2.859,2.859,0,0,0-2.859-2.859H301.86a2.859,2.859,0,0,0-2.859,2.859v56.614a2.846,2.846,0,0,0,2.859,2.859Z" transform="translate(-299.001 -1025.508)" fill="blue" opacity="0.03"/>
      <path id="Path_9802" data-name="Path 9802" d="M210.727,979.052h26a2.121,2.121,0,0,0,2.127-2.128v-26a2.121,2.121,0,0,0-2.127-2.127h-26a2.121,2.121,0,0,0-2.127,2.127v26a2.121,2.121,0,0,0,2.127,2.128Z" transform="translate(-161.495 -948.801)" fill="blue" opacity="0.03"/>
    </g>
    <g id="Group_3444" data-name="Group 3444" transform="translate(3919.65 2469.469)">
      <g id="Group_3385" data-name="Group 3385">
        <g id="Group_3369" data-name="Group 3369" transform="translate(0 0)">
          <path id="Path_12398" data-name="Path 12398" d="M3.865,46.625H15.046V44.693H3.865A1.932,1.932,0,0,1,1.932,42.76V4.115A1.932,1.932,0,0,1,3.865,2.182h42.51a1.932,1.932,0,0,1,1.933,1.932v9.048H50.24V4.115A3.865,3.865,0,0,0,46.375.25H3.865A3.865,3.865,0,0,0,0,4.115V42.76a3.865,3.865,0,0,0,3.865,3.865Zm0,0" transform="translate(0 -0.25)"/>
          <path id="Path_12399" data-name="Path 12399" d="M62.5,62.75h1.932v1.932H62.5Zm0,0" transform="translate(-58.635 -58.885)"/>
          <path id="Path_12400" data-name="Path 12400" d="M125,62.75h1.932v1.932H125Zm0,0" transform="translate(-117.271 -58.885)"/>
          <path id="Path_12401" data-name="Path 12401" d="M187.5,62.75h1.932v1.932H187.5Zm0,0" transform="translate(-175.906 -58.885)"/>
        </g>
      </g>
      <g id="contract" transform="translate(18.497 10.75)">
        <g id="Group_3387" data-name="Group 3387" transform="translate(0 0)">
          <g id="Group_3386" data-name="Group 3386" transform="translate(0)">
            <path id="Path_12409" data-name="Path 12409" d="M39.3,8.8l-.992-.31a3.14,3.14,0,0,0-.805-.124,2.665,2.665,0,0,0-2.479,1.8l-.558,1.673v-1.3a.765.765,0,0,0-.248-.5L24.054.185A.669.669,0,0,0,23.62,0H3.726a.586.586,0,0,0-.62.62V2.54H.813a.586.586,0,0,0-.62.62V40.284a.586.586,0,0,0,.62.62h30.12a.586.586,0,0,0,.62-.62V38.363h2.3a.586.586,0,0,0,.62-.62V29.376L36.2,27.021l.062-.186,4.645-14.813A2.472,2.472,0,0,0,39.3,8.8ZM24.24,2.107l8.116,7.809H24.24Zm6.074,37.557H1.433V3.78H3.106V37.743a.586.586,0,0,0,.62.62H30.314v1.3Zm2.975-2.541H4.346V1.239H23v9.3a.586.586,0,0,0,.62.62h9.669V15.8l-2.913,9.173v.186l.124,7.871a.6.6,0,0,0,.434.558.588.588,0,0,0,.682-.248l1.673-2.231v6.012Zm-1.611-6.012-.124-5.144,3.1.992ZM39.8,11.651,35.334,25.843l-3.595-1.177L36.2,10.536a1.348,1.348,0,0,1,1.673-.868l.992.31a1.311,1.311,0,0,1,.93,1.673Z" transform="translate(-0.193 0.001)"/>
            <path id="Path_12410" data-name="Path 12410" d="M94.93,51.233h8.925a.586.586,0,0,0,.62-.62V44.29a.586.586,0,0,0-.62-.62H94.93a.586.586,0,0,0-.62.62v6.321A.667.667,0,0,0,94.93,51.233Zm.62-6.321h7.684v5.082H95.55Z" transform="translate(-86.562 -40.075)"/>
            <path id="Path_12411" data-name="Path 12411" d="M79.873,192.487H98.714a.62.62,0,1,0,0-1.239H79.873a.62.62,0,1,0,0,1.239Z" transform="translate(-72.744 -175.505)"/>
            <path id="Path_12412" data-name="Path 12412" d="M79.873,247.452H98.714a.62.62,0,1,0,0-1.239H79.873a.62.62,0,0,0,0,1.239Z" transform="translate(-72.744 -225.946)"/>
            <path id="Path_12413" data-name="Path 12413" d="M79.873,302.416H98.714a.62.62,0,0,0,0-1.239H79.873a.62.62,0,0,0,0,1.239Z" transform="translate(-72.744 -276.386)"/>
            <path id="Path_12414" data-name="Path 12414" d="M99.271,356.761a.586.586,0,0,0-.62-.62H79.873a.62.62,0,1,0,0,1.239H98.714A.611.611,0,0,0,99.271,356.761Z" transform="translate(-72.744 -326.826)"/>
            <path id="Path_12415" data-name="Path 12415" d="M236.053,411.106H226.7a.62.62,0,0,0,0,1.239h9.3a.586.586,0,0,0,.62-.62.569.569,0,0,0-.559-.62Z" transform="translate(-207.482 -377.266)"/>
          </g>
        </g>
      </g>
    </g>
  </g>
</svg>
