<svg xmlns="http://www.w3.org/2000/svg" width="77.356" height="77.728" viewBox="0 0 77.356 77.728">
  <g id="cookie_consent_for_subdomains" data-name="cookie consent for subdomains" transform="translate(-3639.336 -2443.501)">
    <g id="Group_3382" data-name="Group 3382" transform="translate(3639.336 2443.501)">
      <path id="Path_9706" data-name="Path 9706" d="M301.86,1103.13h56.613a2.859,2.859,0,0,0,2.859-2.859v-56.614a2.859,2.859,0,0,0-2.859-2.859H301.86a2.859,2.859,0,0,0-2.859,2.859v56.614a2.846,2.846,0,0,0,2.859,2.859Z" transform="translate(-299.001 -1025.508)" fill="blue" opacity="0.03"/>
      <path id="Path_9802" data-name="Path 9802" d="M210.727,979.052h26a2.121,2.121,0,0,0,2.127-2.128v-26a2.121,2.121,0,0,0-2.127-2.127h-26a2.121,2.121,0,0,0-2.127,2.127v26a2.121,2.121,0,0,0,2.127,2.128Z" transform="translate(-161.495 -948.801)" fill="blue" opacity="0.03"/>
    </g>
    <g id="Group_3383" data-name="Group 3383" transform="translate(3650.719 2469.469)">
      <g id="Group_3369" data-name="Group 3369" transform="translate(0 0)">
        <path id="Path_12398" data-name="Path 12398" d="M3.865,46.625H15.046V44.693H3.865A1.932,1.932,0,0,1,1.932,42.76V4.115A1.932,1.932,0,0,1,3.865,2.182h42.51a1.932,1.932,0,0,1,1.933,1.932v9.048H50.24V4.115A3.865,3.865,0,0,0,46.375.25H3.865A3.865,3.865,0,0,0,0,4.115V42.76a3.865,3.865,0,0,0,3.865,3.865Zm0,0" transform="translate(0 -0.25)"/>
        <path id="Path_12399" data-name="Path 12399" d="M62.5,62.75h1.932v1.932H62.5Zm0,0" transform="translate(-58.635 -58.885)"/>
        <path id="Path_12400" data-name="Path 12400" d="M125,62.75h1.932v1.932H125Zm0,0" transform="translate(-117.271 -58.885)"/>
        <path id="Path_12401" data-name="Path 12401" d="M187.5,62.75h1.932v1.932H187.5Zm0,0" transform="translate(-175.906 -58.885)"/>
      </g>
      <g id="xing-website-logo" transform="translate(12.695 10.675)">
        <path id="Path_12405" data-name="Path 12405" d="M42.974,35.741a.594.594,0,0,0,.11-.19,20.469,20.469,0,0,0,0-20.513.594.594,0,0,0-.11-.19A20.632,20.632,0,0,0,31,5.569a.6.6,0,0,0-.161-.048,20.437,20.437,0,0,0-11.1,0,.61.61,0,0,0-.159.045A20.632,20.632,0,0,0,7.614,14.85a.594.594,0,0,0-.11.19,20.469,20.469,0,0,0,0,20.513.594.594,0,0,0,.11.19,20.632,20.632,0,0,0,11.962,9.282.611.611,0,0,0,.166.048,20.438,20.438,0,0,0,11.1,0,.605.605,0,0,0,.175-.05A20.632,20.632,0,0,0,42.974,35.741ZM25.9,44.611V35.958h8.293a21.842,21.842,0,0,1-3.776,7.975,19.259,19.259,0,0,1-4.515.678Zm-5.729-.679a21.828,21.828,0,0,1-3.776-7.975h8.293V44.61a19.259,19.259,0,0,1-4.515-.678ZM5.979,25.9H8.651v4.767a.607.607,0,0,0,.607.607h4.964c.161,1.187.37,2.348.624,3.468h-6.4A19.2,19.2,0,0,1,5.979,25.9ZM8.44,15.846h6.4c-.255,1.12-.464,2.281-.624,3.468H9.258a.607.607,0,0,0-.607.608v4.767H5.979A19.2,19.2,0,0,1,8.44,15.847ZM24.687,5.98v8.653H16.4a21.842,21.842,0,0,1,3.776-7.975,19.259,19.259,0,0,1,4.515-.678Zm5.729.679a21.828,21.828,0,0,1,3.776,7.975H25.9V5.98a19.259,19.259,0,0,1,4.515.679Zm14.194,18.03H41.938V19.922a.607.607,0,0,0-.607-.607H36.367c-.161-1.187-.37-2.348-.624-3.468h6.4a19.2,19.2,0,0,1,2.46,8.842ZM42.148,34.745h-6.4c.255-1.12.464-2.281.624-3.468h4.964a.607.607,0,0,0,.607-.608V25.9h2.672a19.2,19.2,0,0,1-2.46,8.842Zm-16.248,0V31.277h9.242c-.166,1.19-.381,2.348-.645,3.468ZM9.864,30.063V20.53h30.86v9.534ZM35.142,19.314H25.9V15.847h8.6C34.76,16.963,34.976,18.124,35.142,19.314ZM24.684,15.846v3.468H15.447c.166-1.19.381-2.348.645-3.468Zm-9.237,15.43h9.24v3.468h-8.6C15.828,33.627,15.612,32.466,15.447,31.276Zm16.943,12a25.693,25.693,0,0,0,3.059-7.316h5.96a19.434,19.434,0,0,1-9.023,7.312Zm9.019-28.643h-5.96A25.716,25.716,0,0,0,32.39,7.317a19.438,19.438,0,0,1,9.018,7.316ZM18.2,7.317a25.71,25.71,0,0,0-3.059,7.316H9.181A19.435,19.435,0,0,1,18.2,7.318ZM9.181,35.958h5.96A25.7,25.7,0,0,0,18.2,43.274a19.438,19.438,0,0,1-9.021-7.316Z" transform="translate(-4.75 -4.754)"/>
        <path id="Path_12406" data-name="Path 12406" d="M35.34,60.288,34.13,56.625H33.121l-1.213,3.663-1.094-3.663h-1.02l1.623,5.115h.925l1.288-3.8,1.281,3.8h.931l1.615-5.115H36.435Z" transform="translate(-21.11 -38.641)"/>
        <path id="Path_12407" data-name="Path 12407" d="M58.069,61.74H59l1.616-5.115h-1.02L58.5,60.288,57.29,56.625H56.281l-1.214,3.663-1.094-3.663h-1.02l1.623,5.115H55.5l1.288-3.8Z" transform="translate(-36.24 -38.641)"/>
        <path id="Path_12408" data-name="Path 12408" d="M78.66,61.74l1.288-3.8,1.281,3.8h.93l1.616-5.115h-1.02L81.66,60.288,80.45,56.625H79.441l-1.213,3.663-1.094-3.663h-1.02l1.623,5.115Z" transform="translate(-51.369 -38.641)"/>
      </g>
    </g>
  </g>
</svg>
