<svg id="SvgjsSvg1013" xmlns="http://www.w3.org/2000/svg" viewBox="0 0 216 216"><defs><style>.cls-1{fill:#9aabbc;}</style></defs><g id="SvgjsG1015"><path class="cls-1" d="M144.5,252A108,108,0,1,0,36,144.5,108,108,0,0,0,144.5,252Zm-.91-198A90,90,0,1,1,54,144.41,90,90,0,0,1,143.59,54Z" transform="translate(-36 -36)"/><path class="cls-1" d="M144.1,164.7a9,9,0,0,0,9-9l-.28-61.2a9,9,0,1,0-18,.08l.28,61.2A9,9,0,0,0,144.1,164.7Zm.17,36.9a9.54,9.54,0,0,0,9.13-9.4v-1.44a8.46,8.46,0,0,0-8.47-8.45q-.37,0-.75,0a9.36,9.36,0,0,0-9,9v2.16a8.09,8.09,0,0,0,8.09,8.11A7.66,7.66,0,0,0,144.27,201.6Z" transform="translate(-36 -36)"/></g></svg>