<svg xmlns="http://www.w3.org/2000/svg" width="10.53" height="10.53" viewBox="0 0 10.53 10.53">
  <path id="Icon_metro-cross" data-name="Icon metro-cross" d="M13,10.387h0L9.81,7.193,13,4h0a.33.33,0,0,0,0-.465L11.5,2.024a.33.33,0,0,0-.465,0h0L7.836,5.219,4.641,2.024h0a.33.33,0,0,0-.465,0L2.667,3.533a.33.33,0,0,0,0,.465h0L5.861,7.193,2.667,10.387h0a.33.33,0,0,0,0,.465l1.509,1.509a.33.33,0,0,0,.465,0h0L7.836,9.167l3.194,3.194h0a.33.33,0,0,0,.465,0L13,10.853a.33.33,0,0,0,0-.465Z" transform="translate(-2.571 -1.928)" fill="#df0000"/>
</svg>
