<svg xmlns="http://www.w3.org/2000/svg" width="208.978" height="35.731" viewBox="0 0 208.978 35.731">
  <g id="seers_wp_plugin" data-name="seers wp plugin" transform="translate(-203 -56)">
    <g id="Group_3141" data-name="Group 3141" transform="translate(203 56)">
      <g id="Group_3140" data-name="Group 3140" transform="translate(47.424 6.16)">
        <path id="Path_12051" data-name="Path 12051" d="M300.087,90.647h5.683s5.112.123,4.619-4.571-6.515-5.187-9.579-3.673-4.165,6.815-2.839,10.412,3.521,4.581,7.421,4.505A10.36,10.36,0,0,0,309.859,96l-.908-2.082S301.673,97.869,300.087,90.647ZM306,84.258a2.879,2.879,0,0,1,1.663,2.234,1.575,1.575,0,0,1-1.478,1.855h-5.907s.645-5.793,5.719-4.089Z" transform="translate(-280.946 -75.854)" fill="#292929"/>
        <path id="Path_12052" data-name="Path 12052" d="M375.535,90.647h5.683s5.112.123,4.619-4.571-6.512-5.187-9.579-3.673-4.165,6.815-2.839,10.412,3.521,4.581,7.421,4.505A10.357,10.357,0,0,0,385.307,96l-.908-2.082S377.122,97.869,375.535,90.647Zm5.913-6.388a2.879,2.879,0,0,1,1.663,2.234,1.576,1.576,0,0,1-1.478,1.855h-5.907s.645-5.793,5.722-4.089Z" transform="translate(-340.845 -75.854)" fill="#292929"/>
        <path id="Path_12053" data-name="Path 12053" d="M453.814,83.964s4.342-3.383,9.34-1.767l-.4,2.222s-2.525-1.06-6.008.959V97.142h-2.928Z" transform="translate(-405.112 -75.952)" fill="#292929"/>
        <g id="Group_3139" data-name="Group 3139" transform="translate(1.109 23.254)">
          <path id="Path_12054" data-name="Path 12054" d="M222.876,167.259h1.686a1.6,1.6,0,0,1,1.038.285,1.1,1.1,0,0,1,.346.9,1.3,1.3,0,0,1-.152.682,1.028,1.028,0,0,1-.447.386,1.047,1.047,0,0,1,.739,1.1,1.223,1.223,0,0,1-.37,1,1.649,1.649,0,0,1-1.069.3h-1.774Zm1.667.456h-1.149v1.606h1.2a.84.84,0,0,0,.628-.205.857.857,0,0,0,.2-.616.755.755,0,0,0-.212-.6.99.99,0,0,0-.662-.189Zm.054,2.057h-1.2v1.68h1.236a1.091,1.091,0,0,0,.7-.192.823.823,0,0,0,.238-.678.874.874,0,0,0-.1-.431.567.567,0,0,0-.259-.246,1.461,1.461,0,0,0-.611-.133Z" transform="translate(-222.875 -167.084)" fill="#868686"/>
          <path id="Path_12055" data-name="Path 12055" d="M244.247,176.2l.195-.02.014.4a9.638,9.638,0,0,1-1.311.107,1.181,1.181,0,0,1-1.028-.42,2.255,2.255,0,0,1-.3-1.307q0-1.767,1.4-1.767a1.285,1.285,0,0,1,1.015.38,1.768,1.768,0,0,1,.336,1.192l-.026.383h-2.217a1.377,1.377,0,0,0,.2.827.824.824,0,0,0,.7.269Q243.729,176.243,244.247,176.2Zm-.182-1.458a1.462,1.462,0,0,0-.2-.874.767.767,0,0,0-.645-.255.827.827,0,0,0-.672.269,1.355,1.355,0,0,0-.232.862Z" transform="translate(-237.91 -171.795)" fill="#868686"/>
          <path id="Path_12056" data-name="Path 12056" d="M268.732,171.577a6.281,6.281,0,0,1-1.243.141,2.211,2.211,0,0,1-.89-.151,1.114,1.114,0,0,1-.524-.471,2.18,2.18,0,0,1-.256-.732,6.266,6.266,0,0,1-.071-1.032,6.4,6.4,0,0,1,.071-1.038,2.218,2.218,0,0,1,.256-.743,1.1,1.1,0,0,1,.521-.471,2.189,2.189,0,0,1,.873-.148,6.453,6.453,0,0,1,1.263.148l-.02.437a6.982,6.982,0,0,0-1.21-.123,1.01,1.01,0,0,0-.977.44,3.394,3.394,0,0,0-.238,1.5,6.61,6.61,0,0,0,.044.854,1.87,1.87,0,0,0,.171.581.757.757,0,0,0,.373.37,1.81,1.81,0,0,0,.719.111,6.212,6.212,0,0,0,1.118-.123Z" transform="translate(-256.913 -166.827)" fill="#040505"/>
          <path id="Path_12057" data-name="Path 12057" d="M282.862,174.936a2.132,2.132,0,0,1,.329-1.33,1.709,1.709,0,0,1,2.221,0,2.148,2.148,0,0,1,.326,1.33,2.272,2.272,0,0,1-.308,1.337,1.739,1.739,0,0,1-2.258,0A2.272,2.272,0,0,1,282.862,174.936Zm.517-.01a2.14,2.14,0,0,0,.178,1.032,1.089,1.089,0,0,0,1.488,0,2.164,2.164,0,0,0,.174-1.032,1.891,1.891,0,0,0-.195-1.018.824.824,0,0,0-.722-.279.833.833,0,0,0-.726.279,1.858,1.858,0,0,0-.2,1.013Z" transform="translate(-270.498 -171.798)" fill="#040505"/>
          <path id="Path_12058" data-name="Path 12058" d="M301.3,176.615h-.5v-3.362h.5v.235a1.9,1.9,0,0,1,.981-.3,1.009,1.009,0,0,1,.873.342,2.481,2.481,0,0,1,.575-.238,2.236,2.236,0,0,1,.621-.1,1,1,0,0,1,.9.36,2.56,2.56,0,0,1,.232,1.293v1.774h-.5v-1.758a2.325,2.325,0,0,0-.134-.958.583.583,0,0,0-.572-.259,1.738,1.738,0,0,0-.457.062,2.309,2.309,0,0,0-.363.123l-.127.062a3.368,3.368,0,0,1,.087.981v1.747h-.5v-1.734a2.472,2.472,0,0,0-.131-.985.581.581,0,0,0-.575-.259,1.6,1.6,0,0,0-.44.062,2.1,2.1,0,0,0-.346.123l-.114.062Z" transform="translate(-284.74 -171.791)" fill="#040505"/>
          <path id="Path_12059" data-name="Path 12059" d="M328.057,178.11v-4.854h.5v.241a1.936,1.936,0,0,1,1.008-.308,1.059,1.059,0,0,1,.928.407,2.376,2.376,0,0,1,.289,1.341,2.094,2.094,0,0,1-.339,1.34,1.391,1.391,0,0,1-1.126.406,3.571,3.571,0,0,1-.753-.074v1.5Zm1.431-4.469a1.567,1.567,0,0,0-.431.067,2.264,2.264,0,0,0-.366.134l-.128.067v2.265a5.148,5.148,0,0,0,.726.074.87.87,0,0,0,.763-.308,1.786,1.786,0,0,0,.218-1.008,1.863,1.863,0,0,0-.2-.995A.655.655,0,0,0,329.488,173.642Z" transform="translate(-306.38 -171.794)" fill="#040505"/>
          <path id="Path_12060" data-name="Path 12060" d="M345.435,171.238v-4.824h.5v4.824Z" transform="translate(-320.177 -166.414)" fill="#040505"/>
          <path id="Path_12061" data-name="Path 12061" d="M352.77,167.585V167h.5v.585Zm0,4.119v-3.36h.5v3.36Z" transform="translate(-326 -166.879)" fill="#040505"/>
          <path id="Path_12062" data-name="Path 12062" d="M361.451,174.266v1.72q.02.246.389.3l-.02.4a1.085,1.085,0,0,1-.8-.269,2.956,2.956,0,0,1-1.21.269.913.913,0,0,1-.705-.262,1.071,1.071,0,0,1-.242-.753.944.944,0,0,1,.246-.722,1.318,1.318,0,0,1,.779-.286l1.055-.1v-.289a.677.677,0,0,0-.148-.493.544.544,0,0,0-.4-.148,9.67,9.67,0,0,0-1.115.067l-.208.02-.02-.383a6.777,6.777,0,0,1,1.311-.148.937.937,0,0,1,1.088,1.082Zm-2.069,1.371q0,.616.511.616a2.719,2.719,0,0,0,.9-.152l.155-.054v-1.109l-.995.094a.648.648,0,0,0-.437.175.616.616,0,0,0-.135.429Z" transform="translate(-330.838 -171.786)" fill="#040505"/>
          <path id="Path_12063" data-name="Path 12063" d="M376.749,176.615h-.5v-3.362h.5v.235a2.148,2.148,0,0,1,1.042-.3.993.993,0,0,1,.9.363,2.566,2.566,0,0,1,.232,1.29v1.774h-.5v-1.758a2.274,2.274,0,0,0-.138-.958.605.605,0,0,0-.588-.259,1.75,1.75,0,0,0-.453.062,2.287,2.287,0,0,0-.366.123l-.128.062Z" transform="translate(-344.637 -171.791)" fill="#040505"/>
          <path id="Path_12064" data-name="Path 12064" d="M394.228,170h-1.066V171.6a2.171,2.171,0,0,0,.084.759q.084.182.4.182l.6-.041.033.417a4.6,4.6,0,0,1-.686.074.878.878,0,0,1-.726-.256,1.663,1.663,0,0,1-.2-.974V170h-.477v-.438h.477v-1.028h.5v1.028h1.066Z" transform="translate(-357.294 -168.096)" fill="#040505"/>
          <path id="Path_12065" data-name="Path 12065" d="M403.86,187.88l.308-1.545h.557l-.45,1.545Z" transform="translate(-366.561 -182.229)" fill="#040505"/>
          <path id="Path_12066" data-name="Path 12066" d="M419.967,167.259h1.686a1.6,1.6,0,0,1,1.038.285,1.1,1.1,0,0,1,.346.9,1.3,1.3,0,0,1-.151.682,1.028,1.028,0,0,1-.447.386,1.047,1.047,0,0,1,.739,1.1,1.223,1.223,0,0,1-.37,1,1.65,1.65,0,0,1-1.069.3h-1.774Zm1.666.456h-1.149v1.606h1.2a.841.841,0,0,0,.628-.205.857.857,0,0,0,.2-.616.755.755,0,0,0-.212-.6.99.99,0,0,0-.662-.189Zm.054,2.057h-1.2v1.68h1.236a1.092,1.092,0,0,0,.7-.192.823.823,0,0,0,.239-.678.872.872,0,0,0-.1-.431.566.566,0,0,0-.259-.246,1.462,1.462,0,0,0-.611-.133Z" transform="translate(-379.349 -167.084)" fill="#6b6b6b"/>
          <path id="Path_12067" data-name="Path 12067" d="M441.338,176.2l.2-.02.014.4a9.64,9.64,0,0,1-1.31.107,1.181,1.181,0,0,1-1.028-.42,2.253,2.253,0,0,1-.3-1.307q0-1.767,1.4-1.767a1.284,1.284,0,0,1,1.014.38,1.768,1.768,0,0,1,.336,1.192l-.027.383h-2.217a1.377,1.377,0,0,0,.2.827.824.824,0,0,0,.7.269Q440.82,176.243,441.338,176.2Zm-.181-1.458a1.46,1.46,0,0,0-.2-.874.767.767,0,0,0-.645-.255.827.827,0,0,0-.672.269,1.355,1.355,0,0,0-.232.862Z" transform="translate(-394.384 -171.795)" fill="#6b6b6b"/>
          <path id="Path_12068" data-name="Path 12068" d="M464.007,167.363q-1.008,0-1.008.759a.655.655,0,0,0,.232.581,3.087,3.087,0,0,0,.94.315,2.394,2.394,0,0,1,1,.41,1.036,1.036,0,0,1,.3.83q0,1.431-1.485,1.431a8.3,8.3,0,0,1-1.232-.114l-.242-.034.054-.431a11.547,11.547,0,0,0,1.391.123q.995,0,.995-.934a.634.634,0,0,0-.219-.541,2.121,2.121,0,0,0-.816-.278,2.75,2.75,0,0,1-1.115-.431,1.081,1.081,0,0,1-.33-.89q0-1.25,1.5-1.25a8.235,8.235,0,0,1,1.176.1l.228.034-.047.437a12.636,12.636,0,0,0-1.32-.12Z" transform="translate(-413.096 -166.805)" fill="#040505"/>
          <path id="Path_12069" data-name="Path 12069" d="M482.647,176.2l.2-.02.014.4a9.634,9.634,0,0,1-1.31.107,1.181,1.181,0,0,1-1.029-.42,2.257,2.257,0,0,1-.3-1.307q0-1.767,1.4-1.767a1.285,1.285,0,0,1,1.015.38,1.768,1.768,0,0,1,.336,1.192l-.027.383h-2.217a1.376,1.376,0,0,0,.2.827.823.823,0,0,0,.7.269Q482.13,176.243,482.647,176.2Zm-.181-1.458a1.46,1.46,0,0,0-.2-.874.767.767,0,0,0-.645-.255.826.826,0,0,0-.672.269,1.355,1.355,0,0,0-.232.862Z" transform="translate(-427.18 -171.795)" fill="#040505"/>
          <path id="Path_12070" data-name="Path 12070" d="M498.107,173.2a5.8,5.8,0,0,1,.753.081l.161.02-.02.41a7.865,7.865,0,0,0-.793-.062.924.924,0,0,0-.776.272,1.771,1.771,0,0,0-.205,1.008,1.971,1.971,0,0,0,.191,1.025.9.9,0,0,0,.8.289l.793-.062.02.416a6.91,6.91,0,0,1-.934.094,1.273,1.273,0,0,1-1.085-.4,2.346,2.346,0,0,1-.3-1.361,2.13,2.13,0,0,1,.323-1.344A1.328,1.328,0,0,1,498.107,173.2Z" transform="translate(-440.274 -171.795)" fill="#040505"/>
          <path id="Path_12071" data-name="Path 12071" d="M513.576,173.522h.5v3.36h-.5v-.235a1.923,1.923,0,0,1-.994.3,1,1,0,0,1-.91-.356,2.678,2.678,0,0,1-.225-1.317v-1.754h.5v1.747a2.474,2.474,0,0,0,.128.981q.128.246.578.246a1.663,1.663,0,0,0,.45-.062,2.061,2.061,0,0,0,.349-.123l.123-.062Z" transform="translate(-451.974 -172.057)" fill="#040505"/>
          <path id="Path_12072" data-name="Path 12072" d="M528.929,176.6v-3.36h.5v.457a3.275,3.275,0,0,1,1.232-.531v.511a3.622,3.622,0,0,0-.588.168,3.886,3.886,0,0,0-.467.2l-.168.087v2.464Z" transform="translate(-465.856 -171.772)" fill="#040505"/>
          <path id="Path_12073" data-name="Path 12073" d="M541.594,176.2l.195-.02.014.4a9.63,9.63,0,0,1-1.31.107,1.18,1.18,0,0,1-1.028-.42,2.255,2.255,0,0,1-.3-1.307q0-1.767,1.4-1.767a1.284,1.284,0,0,1,1.014.38,1.768,1.768,0,0,1,.336,1.192l-.027.383h-2.214a1.379,1.379,0,0,0,.2.827.824.824,0,0,0,.7.269Q541.077,176.243,541.594,176.2Zm-.181-1.458a1.461,1.461,0,0,0-.2-.874.767.767,0,0,0-.646-.255.827.827,0,0,0-.672.269,1.355,1.355,0,0,0-.232.862Z" transform="translate(-473.979 -171.795)" fill="#040505"/>
        </g>
        <path id="Path_12074" data-name="Path 12074" d="M223.468,64.826c2.407.6,5.174,2.118,5,4.389s-2.306,4.967-10.005,1.636l-.961,2.171a11.907,11.907,0,0,0,9.9,1.5c5.345-1.478,5.49-9.276-.038-11.018-2.842-.9-4.842-1.532-5.679-2.537a2.991,2.991,0,0,1,.378-4.054c1.792-1.338,6.265-.548,7.628.436l.985-2.094s-9.138-4.24-11.791.753C218.886,56,215.35,62.793,223.468,64.826Z" transform="translate(-217.5 -53.573)" fill="#292929"/>
        <path id="Path_12075" data-name="Path 12075" d="M510.246,90.627c1.773.444,3.809,1.559,3.68,3.231s-1.7,3.657-7.365,1.2l-.706,1.6a8.767,8.767,0,0,0,7.291,1.1c3.935-1.09,4.042-6.829-.028-8.112-2.094-.659-3.565-1.128-4.181-1.867a2.2,2.2,0,0,1,.278-2.985c1.319-.985,4.612-.4,5.615.322l.725-1.54s-6.728-3.121-8.681.554C506.873,84.131,504.269,89.129,510.246,90.627Z" transform="translate(-446.426 -76.413)" fill="#292929"/>
      </g>
      <g id="seers-owl" transform="translate(0)">
        <path id="Path_1" data-name="Path 1" d="M-793.042,530.058a9.259,9.259,0,0,1,2.19-5.993,10.892,10.892,0,0,1-2.8-2.026c-7.96-8.514-1.224-16.585-1.224-16.585-4.4,1.895-8.684,7.514-8.684,7.514a11.363,11.363,0,0,0,1.336,5.511c-1.837.056-2.839-2.616-2.839-2.616a38.139,38.139,0,0,0-1,4.008,12.59,12.59,0,0,0,2.95,3.34,2.577,2.577,0,0,1-3.173-.946,24.414,24.414,0,0,0,.334,3.952c.278.946,2.561,3.009,2.561,3.009a2.379,2.379,0,0,1-1.559.056,18.714,18.714,0,0,0,4.4,6.624,15.809,15.809,0,0,0,8.3-2.105A9.258,9.258,0,0,1-793.042,530.058Z" transform="translate(806.325 -505.454)" fill="#3b6ef8"/>
        <path id="Path_2" data-name="Path 2" d="M-734.159,564.477s-6.29-4.008-12.024.334c0,0,3.9,3.507,5.01,6.457a4.311,4.311,0,0,0,1.167,3.561,4.188,4.188,0,0,0,.946-3.674S-736.943,566.647-734.159,564.477Z" transform="translate(762.75 -546.996)" fill="#3b6ef8"/>
        <circle id="Ellipse_1" data-name="Ellipse 1" cx="0.779" cy="0.779" r="0.779" transform="translate(18.042 23.269)" fill="#3b6ef8"/>
        <circle id="Ellipse_2" data-name="Ellipse 2" cx="0.779" cy="0.779" r="0.779" transform="translate(25.807 23.269)" fill="#3b6ef8"/>
        <path id="Path_3" data-name="Path 3" d="M-701.876,541.163a16.505,16.505,0,0,0,3.4-5.288s-.946-5.455-3.674-8.8c0,0,1,7.348-4.732,11.523l.154.17a9.3,9.3,0,0,1,.789,13.123,9.3,9.3,0,0,1-2.594,2.042l.761.807a19.283,19.283,0,0,0,9.3-15.2S-699.815,541.886-701.876,541.163Z" transform="translate(735.475 -521.122)" fill="#3b6ef8"/>
        <path id="Path_4" data-name="Path 4" d="M-768.575,613.893a9.3,9.3,0,0,1-8.514-5.56,15.443,15.443,0,0,1-8.3,2.109,19.262,19.262,0,0,0,21.932,3.173l-.761-.807A9.254,9.254,0,0,1-768.575,613.893Z" transform="translate(791.154 -579.993)" fill="#3cd08c"/>
      </g>
    </g>
    <path id="Path_125" data-name="Path 125" d="M16.92-12.69,13.7,0h-2L8.766-10.368,5.832,0h-2L.594-12.69H2.412L4.842-1.908,7.848-12.69H9.666L12.672-1.944,15.12-12.69Zm3.564,7.578V0H18.846V-12.69h4.032a4.6,4.6,0,0,1,3.258,1.017,3.636,3.636,0,0,1,1.08,2.781A3.54,3.54,0,0,1,26.1-6.111a4.678,4.678,0,0,1-3.222,1Zm2.25-1.368a3.041,3.041,0,0,0,2.151-.63,2.353,2.353,0,0,0,.657-1.782,2.371,2.371,0,0,0-.657-1.809,3.071,3.071,0,0,0-2.151-.621h-2.25V-6.48ZM35.208-5.112V0H33.57V-12.69H37.6a4.6,4.6,0,0,1,3.258,1.017,3.636,3.636,0,0,1,1.08,2.781,3.54,3.54,0,0,1-1.116,2.781,4.678,4.678,0,0,1-3.222,1Zm2.25-1.368a3.041,3.041,0,0,0,2.151-.63,2.353,2.353,0,0,0,.657-1.782,2.371,2.371,0,0,0-.657-1.809,3.071,3.071,0,0,0-2.151-.621h-2.25V-6.48Zm8.028-6.84V0H43.848V-13.32ZM56.9-9.882V0H55.26V-2.322A3.324,3.324,0,0,1,53.919-.477a3.959,3.959,0,0,1-2.241.639A3.667,3.667,0,0,1,48.906-.945a4.409,4.409,0,0,1-1.062-3.177v-5.76h1.638v5.6a3.19,3.19,0,0,0,.756,2.277,2.686,2.686,0,0,0,2.052.8,2.805,2.805,0,0,0,2.16-.873,3.616,3.616,0,0,0,.81-2.547V-9.882Zm6.678-.126a4.061,4.061,0,0,1,2.439.72A3.752,3.752,0,0,1,67.41-7.362v-2.52h1.638V.162a5.015,5.015,0,0,1-.576,2.43,4.137,4.137,0,0,1-1.62,1.656,4.829,4.829,0,0,1-2.43.594,5.217,5.217,0,0,1-3.258-.963,4.25,4.25,0,0,1-1.6-2.6h1.62a2.806,2.806,0,0,0,1.089,1.557,3.486,3.486,0,0,0,2.061.567,3.022,3.022,0,0,0,2.205-.855A3.186,3.186,0,0,0,67.41.162V-2.52A3.752,3.752,0,0,1,66.015-.594a4.061,4.061,0,0,1-2.439.72,4.479,4.479,0,0,1-2.34-.612,4.233,4.233,0,0,1-1.611-1.755,5.834,5.834,0,0,1-.585-2.691,5.89,5.89,0,0,1,.585-2.7A4.221,4.221,0,0,1,61.236-9.4,4.479,4.479,0,0,1,63.576-10.008Zm.468,1.458a3.172,3.172,0,0,0-2.421.963,3.713,3.713,0,0,0-.909,2.655,3.713,3.713,0,0,0,.909,2.655,3.172,3.172,0,0,0,2.421.963,3.361,3.361,0,0,0,1.737-.45,3.133,3.133,0,0,0,1.2-1.269,4.012,4.012,0,0,0,.432-1.9,4.066,4.066,0,0,0-.432-1.908,3.059,3.059,0,0,0-1.2-1.269A3.414,3.414,0,0,0,64.044-8.55Zm7.326-4.23a.94.94,0,0,1,.306-.729,1.156,1.156,0,0,1,.81-.279,1.156,1.156,0,0,1,.81.279.94.94,0,0,1,.306.729.94.94,0,0,1-.306.729,1.156,1.156,0,0,1-.81.279,1.156,1.156,0,0,1-.81-.279A.94.94,0,0,1,71.37-12.78Zm1.926,2.9V0H71.658V-9.882Zm7.83-.162a3.69,3.69,0,0,1,2.79,1.107,4.436,4.436,0,0,1,1.062,3.2V0H83.34V-5.6a3.157,3.157,0,0,0-.756-2.268,2.7,2.7,0,0,0-2.052-.792,2.805,2.805,0,0,0-2.16.873,3.616,3.616,0,0,0-.81,2.547V0H75.924V-9.882h1.638v2.34A3.366,3.366,0,0,1,78.9-9.4,3.888,3.888,0,0,1,81.126-10.044Z" transform="translate(327 86.788)" fill="#010101"/>
  </g>
</svg>
