<svg xmlns="http://www.w3.org/2000/svg" width="77.356" height="77.642" viewBox="0 0 77.356 77.642">
  <g id="Seers_full_customisable_cookie_banner" data-name="Seers full customisable cookie banner" transform="translate(-3128.031 -2153.215)">
    <g id="Group_3371" data-name="Group 3371" transform="translate(3128.031 2153.215)">
      <path id="Path_9706" data-name="Path 9706" d="M301.86,1103.13h56.613a2.859,2.859,0,0,0,2.859-2.859v-56.614a2.859,2.859,0,0,0-2.859-2.859H301.86a2.859,2.859,0,0,0-2.859,2.859v56.614a2.846,2.846,0,0,0,2.859,2.859Z" transform="translate(-299.001 -1025.508)" fill="blue" opacity="0.03"/>
      <path id="Path_9802" data-name="Path 9802" d="M210.727,979.052h26a2.121,2.121,0,0,0,2.127-2.128v-26a2.121,2.121,0,0,0-2.127-2.127h-26a2.121,2.121,0,0,0-2.127,2.127v26a2.121,2.121,0,0,0,2.127,2.128Z" transform="translate(-161.495 -948.801)" fill="blue" opacity="0.03"/>
    </g>
    <g id="surface1" transform="translate(3138.702 2177.759)">
      <path id="Path_12343" data-name="Path 12343" d="M3.793,45.762h1.9v-1.9h-1.9a1.9,1.9,0,0,1-1.9-1.9V4.043a1.9,1.9,0,0,1,1.9-1.9H45.512a1.9,1.9,0,0,1,1.9,1.9v1.9h1.9v-1.9A3.793,3.793,0,0,0,45.512.25H3.793A3.793,3.793,0,0,0,0,4.043V41.969A3.793,3.793,0,0,0,3.793,45.762Zm0,0" transform="translate(0 -0.25)"/>
      <path id="Path_12344" data-name="Path 12344" d="M62.5,62.75h1.9v1.9H62.5Zm0,0" transform="translate(-58.707 -58.957)"/>
      <path id="Path_12345" data-name="Path 12345" d="M125,62.75h1.9v1.9H125Zm0,0" transform="translate(-117.414 -58.957)"/>
      <path id="Path_12346" data-name="Path 12346" d="M187.5,62.75h1.9v1.9h-1.9Zm0,0" transform="translate(-176.122 -58.957)"/>
      <path id="Path_12347" data-name="Path 12347" d="M125,166.969a3.793,3.793,0,0,0,3.793,3.793h41.719a3.793,3.793,0,0,0,3.793-3.793V129.043a3.793,3.793,0,0,0-3.793-3.793H128.793A3.793,3.793,0,0,0,125,129.043Zm1.9-37.927a1.9,1.9,0,0,1,1.9-1.9h41.72a1.9,1.9,0,0,1,1.9,1.9v37.927a1.9,1.9,0,0,1-1.9,1.9H128.793a1.9,1.9,0,0,1-1.9-1.9Zm0,0" transform="translate(-117.414 -117.664)"/>
      <path id="Path_12348" data-name="Path 12348" d="M187.5,187.75h1.9v1.9h-1.9Zm0,0" transform="translate(-176.122 -176.372)"/>
      <path id="Path_12349" data-name="Path 12349" d="M250,187.75h1.9v1.9H250Zm0,0" transform="translate(-234.83 -176.372)"/>
      <path id="Path_12350" data-name="Path 12350" d="M312.5,187.75h1.9v1.9h-1.9Zm0,0" transform="translate(-293.537 -176.372)"/>
      <path id="Path_12351" data-name="Path 12351" d="M187.5,250.25h41.719v1.9H187.5Zm0,0" transform="translate(-176.122 -235.08)"/>
      <path id="Path_12352" data-name="Path 12352" d="M187.5,328.375h7.586v1.9H187.5Zm0,0" transform="translate(-176.122 -308.463)"/>
      <path id="Path_12353" data-name="Path 12353" d="M187.5,390.875h5.692v1.9H187.5Zm0,0" transform="translate(-176.122 -367.171)"/>
      <path id="Path_12354" data-name="Path 12354" d="M428.508,453.375a6.637,6.637,0,1,0,6.637,6.637A6.637,6.637,0,0,0,428.508,453.375Zm0,11.378a4.741,4.741,0,1,1,4.741-4.741A4.741,4.741,0,0,1,428.508,464.753Zm0,0" transform="translate(-396.273 -425.878)"/>
      <path id="Path_12355" data-name="Path 12355" d="M311.593,325.076a.948.948,0,0,0-.948-.948h-2.506a12.061,12.061,0,0,0-.75-1.811l1.772-1.771a.949.949,0,0,0,0-1.341l-4.023-4.023a.949.949,0,0,0-1.341,0l-1.771,1.772a12.26,12.26,0,0,0-1.811-.749V313.7a.948.948,0,0,0-.948-.948h-5.692a.948.948,0,0,0-.948.948V316.2a12.263,12.263,0,0,0-1.811.749l-1.771-1.772a.949.949,0,0,0-1.341,0L283.68,319.2a.949.949,0,0,0,0,1.341l1.772,1.771c-.079.155-.156.311-.228.468a12.26,12.26,0,0,0-.522,1.342H282.2a.948.948,0,0,0-.948.948v5.692a.948.948,0,0,0,.948.948H284.7a12.06,12.06,0,0,0,.75,1.811L283.68,335.3a.949.949,0,0,0,0,1.341l4.023,4.023a.949.949,0,0,0,1.341,0l1.771-1.771a12.267,12.267,0,0,0,1.811.749v2.506a.948.948,0,0,0,.948.948h5.692a.948.948,0,0,0,.948-.948v-2.506a12.265,12.265,0,0,0,1.811-.749l1.771,1.772a.949.949,0,0,0,1.341,0l4.023-4.023a.949.949,0,0,0,0-1.341l-1.772-1.771a12.049,12.049,0,0,0,.75-1.811h2.506a.948.948,0,0,0,.948-.948Zm-1.9,4.741h-2.27a.948.948,0,0,0-.918.711,10.368,10.368,0,0,1-1.109,2.682.948.948,0,0,0,.146,1.152l1.6,1.6-2.681,2.683-1.6-1.6a.948.948,0,0,0-1.153-.146,10.355,10.355,0,0,1-2.681,1.109.949.949,0,0,0-.711.918v2.27h-3.793v-2.27a.948.948,0,0,0-.711-.918,10.355,10.355,0,0,1-2.681-1.109.948.948,0,0,0-1.153.146l-1.6,1.6-2.682-2.683,1.6-1.6a.948.948,0,0,0,.146-1.152,10.363,10.363,0,0,1-1.109-2.681.948.948,0,0,0-.918-.711h-2.27v-3.793h2.27a.948.948,0,0,0,.918-.711,10.3,10.3,0,0,1,.617-1.737,10.468,10.468,0,0,1,.493-.948.949.949,0,0,0-.146-1.151l-1.6-1.6,2.681-2.683,1.6,1.605a.948.948,0,0,0,1.153.142,10.371,10.371,0,0,1,2.681-1.109.948.948,0,0,0,.711-.917v-2.267h3.793v2.27a.948.948,0,0,0,.711.918,10.358,10.358,0,0,1,2.681,1.109.948.948,0,0,0,1.153-.146l1.6-1.6,2.681,2.683-1.6,1.6a.948.948,0,0,0-.146,1.152,10.369,10.369,0,0,1,1.109,2.682.948.948,0,0,0,.918.711h2.27Zm0,0" transform="translate(-264.182 -293.786)"/>
      <path id="Path_12356" data-name="Path 12356" d="M781.25,781.5h5.692v1.9H781.25Zm0,0" transform="translate(-733.841 -734.091)"/>
    </g>
  </g>
</svg>
